# xmcd
#
# Track frame offsets:
#	182
#	10407
#	20272
#	32490
#	45362
#	58020
#	71012
#	80570
#	92892
#	102870
#
# Disc length: 1497 seconds
# Revision: 2
# Processed by: cddbd v1.5.2PL0 Copyright (c) Steve Scherf et al.
# Submitted via: dBpowerAMP V12.0
#
DISCID=7505d70a
DTITLE=Jim Reeves - The Best Of Jim Reeves, Vol. 3
DYEAR=1989
DGENRE=Country
TTITLE0=Is It Really Over
TTITLE1=Missing Angel
TTITLE2=A Fallen Star
TTITLE3=Golden Memories And Silver Tears
TTITLE4=Could I Be Falling In Love
TTITLE5=Distant Drums
TTITLE6=I'm Gonna Change Everything
TTITLE7=Pride Goes Before A Fall
TTITLE8=It Hurts So Much To See You Go
TTITLE9=The Storm
EXTD=
EXTT0=
EXTT1=
EXTT2=
EXTT3=
EXTT4=
EXTT5=
EXTT6=
EXTT7=
EXTT8=
EXTT9=
PLAYORDER=
